<svg id="Capa_1" data-name="Capa 1" xmlns="http://www.w3.org/2000/svg" xmlns:xlink="http://www.w3.org/1999/xlink" viewBox="0 0 141.73 141.73"><defs><style>.cls-1{fill:url(#Degradado_sin_nombre_16);}</style><linearGradient id="Degradado_sin_nombre_16" x1="5.19" y1="70.87" x2="140.97" y2="70.87" gradientUnits="userSpaceOnUse"><stop offset="0" stop-color="#d182b0"/><stop offset="1" stop-color="#82103d"/></linearGradient></defs><title>ajustes</title><path class="cls-1" d="M138.53,63.06l-14.45-2.92c-.27-1.35-.61-2.68-1-4l11-7.38a3.05,3.05,0,0,0,.82-4.23l-8.06-12a3.05,3.05,0,0,0-4.23-.82l-8.92,6q-1.6-2-3.39-3.89l6.59-9.78a3.05,3.05,0,0,0-.82-4.23l-12-8.06a3.06,3.06,0,0,0-4.24.82l-6.37,9.46a50.61,50.61,0,0,0-4.85-1.87l2.16-10.7a3,3,0,0,0-2.38-3.59L74.27,3.08a3.06,3.06,0,0,0-3.59,2.38L68.23,17.63c-1.71.12-3.4.31-5.06.58L61.08,7.87a3.06,3.06,0,0,0-3.59-2.39L43.35,8.34A3.06,3.06,0,0,0,41,11.93l2.74,13.59q-2,1.23-3.84,2.62L28.64,20.57a3.06,3.06,0,0,0-4.24.82l-8.06,12a3.06,3.06,0,0,0,.83,4.23l8.85,6c-.88,1.46-1.68,3-2.42,4.52L11.78,45.69a3.06,3.06,0,0,0-3.59,2.38L5.34,62.21A3.06,3.06,0,0,0,7.72,65.8L18.59,68c-.05.94-.08,1.88-.08,2.83s0,1.59.06,2.38L7.63,75.4A3.07,3.07,0,0,0,5.25,79L8.1,93.13a3,3,0,0,0,3.59,2.38l11.72-2.36c.72,1.56,1.52,3.08,2.38,4.56l-8.87,6a3.06,3.06,0,0,0-.83,4.23l8.06,12a3.06,3.06,0,0,0,4.24.82l11.11-7.49c1.22.94,2.5,1.82,3.81,2.65l-2.78,13.77a3,3,0,0,0,2.38,3.59L57,136.07a3.07,3.07,0,0,0,3.6-2.38l2.08-10.34c1.66.29,3.34.49,5,.62l2.48,12.3a3.06,3.06,0,0,0,3.59,2.38L88,135.8a3.06,3.06,0,0,0,2.38-3.59l-2.14-10.64a51.39,51.39,0,0,0,4.85-1.83l6.42,9.52a3.05,3.05,0,0,0,4.23.82l12-8.06a3.05,3.05,0,0,0,.82-4.23l-6.54-9.7q1.81-1.84,3.43-3.86l8.94,6a3.07,3.07,0,0,0,4.24-.83l8.06-12a3.06,3.06,0,0,0-.83-4.23L123,86q.7-2.4,1.19-4.86l10.31,2.08a3.06,3.06,0,0,0,3.59-2.39l2.85-14.13A3.05,3.05,0,0,0,138.53,63.06ZM73.08,98.45a27.58,27.58,0,1,1,27.58-27.58A27.58,27.58,0,0,1,73.08,98.45Z"/></svg>