<svg id="Capa_1" data-name="Capa 1" xmlns="http://www.w3.org/2000/svg" xmlns:xlink="http://www.w3.org/1999/xlink" viewBox="0 0 141.73 141.73"><defs><style>.cls-1{fill:url(#Degradado_sin_nombre_16);}</style><linearGradient id="Degradado_sin_nombre_16" x1="36.05" y1="69.87" x2="115.74" y2="69.87" gradientUnits="userSpaceOnUse"><stop offset="0" stop-color="#d182b0"/><stop offset="1" stop-color="#82103d"/></linearGradient></defs><title>hot</title><path class="cls-1" d="M115.7,92.29c0-.32,0-.63,0-.94-1.49-27.88-22-84.57-22-84.57s5.42,32.51-17.22,47.61-30.2-19-30.2-19c-9.57,28.67-10.91,44.35-9.93,58.26C37.84,115.32,54.75,133,76.45,133a39.29,39.29,0,0,0,39.29-39.29C115.73,93.23,115.72,92.76,115.7,92.29ZM76.45,119c-13.87,0-25.11-11.3-26.17-26.27a91.32,91.32,0,0,1,1.54-24.24,27.11,27.11,0,0,0,13.75,3.79c6.19,0,12.46-2.09,18.64-6.21A50,50,0,0,0,94.7,56.7c3.6,13.3,6.49,26.43,7,35.4v.18c0,.18,0,.36,0,.56l0,.94A25.32,25.32,0,0,1,76.45,119Z"/></svg>